<svg id="Component_160_2" data-name="Component 160 – 2" xmlns="http://www.w3.org/2000/svg" width="56" height="56" viewBox="0 0 56 56">
  <g id="Rectangle_2" data-name="Rectangle 2" fill="#fff" stroke="#d5d5d5" stroke-width="0.6" opacity="0">
    <rect width="56" height="56" rx="13" stroke="none"/>
    <rect x="0.3" y="0.3" width="55.4" height="55.4" rx="12.7" fill="none"/>
  </g>
  <g id="Group_941" data-name="Group 941" transform="translate(-617.369 -136.789)">
    <path id="Union_11" data-name="Union 11" d="M23.555,10.064,28.073,0,33.8,2.572,29.286,12.636ZM0,2.572,5.73,0l4.518,10.064L4.517,12.636Z" transform="translate(628.746 137.844)" fill="#9995ff" stroke="rgba(0,0,0,0)" stroke-width="1"/>
    <g id="Group_939" data-name="Group 939" transform="translate(626.157 151.846)">
      <path id="Path_557" data-name="Path 557" d="M151.533,404.47H123.29a9.6,9.6,0,0,0,2.929,6.555,9.028,9.028,0,0,0,6.345,2.371,7.971,7.971,0,0,0,7.74-4.672h10.53a17.6,17.6,0,0,1-6.415,9.17,18.726,18.726,0,0,1-11.646,3.592,20.147,20.147,0,0,1-10.007-2.476,17.408,17.408,0,0,1-6.9-7.008,21.471,21.471,0,0,1-2.475-10.46,21.869,21.869,0,0,1,2.441-10.53,17.034,17.034,0,0,1,6.834-6.973,21.943,21.943,0,0,1,19.979-.07,16.7,16.7,0,0,1,6.764,6.73,20.365,20.365,0,0,1,2.406,10.007A23.148,23.148,0,0,1,151.533,404.47Zm-9.833-6.555a7.745,7.745,0,0,0-2.72-6.032,9.641,9.641,0,0,0-6.485-2.267,8.86,8.86,0,0,0-6.1,2.2,9.656,9.656,0,0,0-3.033,6.1Z" transform="translate(-113.388 -381.597)" fill="#01bdf4"/>
    </g>
  </g>
</svg>
