<svg id="Component_9_1" data-name="Component 9 – 1" xmlns="http://www.w3.org/2000/svg" width="282" height="38.558" viewBox="0 0 282 38.558">
  <path id="Path_11" data-name="Path 11" d="M105.353,16.626a6.951,6.951,0,0,1,3.256-.749,7.2,7.2,0,0,1,6.484,3.891,8.9,8.9,0,0,1,.98,4.236,9.159,9.159,0,0,1-.98,4.279,7.323,7.323,0,0,1-2.695,2.939,7.1,7.1,0,0,1-3.789,1.052,6.887,6.887,0,0,1-3.228-.735,7.227,7.227,0,0,1-2.305-1.83v9.856H99.791V16.137h3.285v2.334a6.676,6.676,0,0,1,2.277-1.845m6.7,4.539a4.648,4.648,0,0,0-1.786-1.816,4.808,4.808,0,0,0-2.378-.619,4.662,4.662,0,0,0-2.348.634,4.72,4.72,0,0,0-1.787,1.845,5.742,5.742,0,0,0-.677,2.852,5.824,5.824,0,0,0,.677,2.867,4.684,4.684,0,0,0,4.135,2.493,4.636,4.636,0,0,0,2.378-.648,4.782,4.782,0,0,0,1.786-1.888A5.916,5.916,0,0,0,112.73,24a5.669,5.669,0,0,0-.677-2.838" transform="translate(-34.041 -5.416)" fill="#101011"/>
  <path id="Path_12" data-name="Path 12" d="M129.393,10.294a2.033,2.033,0,0,1-.605-1.5,2.068,2.068,0,0,1,2.1-2.1,2,2,0,0,1,1.47.606,2.036,2.036,0,0,1,.6,1.5,2.035,2.035,0,0,1-.6,1.5,2,2,0,0,1-1.47.606,2.033,2.033,0,0,1-1.5-.606m3.112,18.588H129.22V13h3.285Z" transform="translate(-43.932 -2.283)" fill="#101011"/>
  <path id="Path_13" data-name="Path 13" d="M154.428,24.061a9,9,0,0,1-.994,4.308,7.171,7.171,0,0,1-2.752,2.882,7.871,7.871,0,0,1-4.034,1.023,7.656,7.656,0,0,1-4.726-1.426A7.1,7.1,0,0,1,139.328,27h3.545a3.646,3.646,0,0,0,3.775,2.508,3.957,3.957,0,0,0,3.213-1.442,6.089,6.089,0,0,0,1.2-4.005,6.033,6.033,0,0,0-1.2-3.991,3.976,3.976,0,0,0-3.213-1.426,4.084,4.084,0,0,0-2.392.663,3.747,3.747,0,0,0-1.383,1.844h-3.545a6.745,6.745,0,0,1,2.55-3.905,8.8,8.8,0,0,1,8.8-.36,7.072,7.072,0,0,1,2.752,2.867,8.995,8.995,0,0,1,.994,4.308" transform="translate(-47.528 -5.416)" fill="#4bb58c"/>
  <path id="Path_14" data-name="Path 14" d="M185.05,25.893h-8.386l-1.441,4.092h-3.429l7.175-20.057h3.8l7.176,20.057h-3.458Zm-.922-2.68L180.871,13.9l-3.285,9.308Z" transform="translate(-58.603 -3.387)" fill="#101011"/>
  <path id="Path_15" data-name="Path 15" d="M207.2,16.907V25.7a1.683,1.683,0,0,0,.418,1.282,2.073,2.073,0,0,0,1.426.389h2.017V30.1H208.47a5,5,0,0,1-3.4-1.037,4.274,4.274,0,0,1-1.182-3.371V16.907h-1.873v-2.68h1.873V10.279H207.2v3.947h3.862v2.68Z" transform="translate(-68.912 -3.507)" fill="#101011"/>
  <path id="Path_16" data-name="Path 16" d="M223.473,16.907V25.7a1.683,1.683,0,0,0,.418,1.282,2.075,2.075,0,0,0,1.426.389h2.017V30.1H224.74a5,5,0,0,1-3.4-1.037,4.272,4.272,0,0,1-1.182-3.371V16.907h-1.873v-2.68h1.873V10.279h3.314v3.947h3.861v2.68Z" transform="translate(-74.462 -3.507)" fill="#101011"/>
  <path id="Path_17" data-name="Path 17" d="M250.481,25.3H238.349a4.4,4.4,0,0,0,1.413,3.055,4.456,4.456,0,0,0,3.113,1.153,3.845,3.845,0,0,0,3.746-2.219h3.544a7.152,7.152,0,0,1-2.609,3.588,7.651,7.651,0,0,1-4.682,1.4,8.107,8.107,0,0,1-4.078-1.023,7.275,7.275,0,0,1-2.825-2.882,8.792,8.792,0,0,1-1.023-4.308,8.994,8.994,0,0,1,.994-4.308,7,7,0,0,1,2.8-2.867,8.321,8.321,0,0,1,4.135-1.009,8.094,8.094,0,0,1,4.006.98,6.935,6.935,0,0,1,2.737,2.752,8.283,8.283,0,0,1,.98,4.078,10.316,10.316,0,0,1-.115,1.614m-3.314-2.651a3.739,3.739,0,0,0-1.3-2.91,4.637,4.637,0,0,0-3.141-1.1,4.22,4.22,0,0,0-2.911,1.081,4.514,4.514,0,0,0-1.44,2.925Z" transform="translate(-80.146 -5.416)" fill="#101011"/>
  <path id="Path_18" data-name="Path 18" d="M274.965,16.655a5.533,5.533,0,0,1,2.319,2.305,7.579,7.579,0,0,1,.836,3.688v9.366h-3.256V23.139a4.608,4.608,0,0,0-1.067-3.271,3.794,3.794,0,0,0-2.91-1.139,3.842,3.842,0,0,0-2.925,1.139,4.571,4.571,0,0,0-1.08,3.271v8.876H263.6V16.137h3.285v1.815a5.43,5.43,0,0,1,2.06-1.527,6.584,6.584,0,0,1,2.666-.548,7.123,7.123,0,0,1,3.357.778" transform="translate(-89.919 -5.416)" fill="#101011"/>
  <path id="Path_19" data-name="Path 19" d="M291.313,17.081a7.248,7.248,0,0,1,6.527-3.89,7.45,7.45,0,0,1,3.069.677,6.283,6.283,0,0,1,2.406,1.8V8h3.314V29.329h-3.314V26.937a6.152,6.152,0,0,1-2.234,1.9,6.93,6.93,0,0,1-3.271.749,7.1,7.1,0,0,1-3.789-1.052,7.418,7.418,0,0,1-2.709-2.939,9.038,9.038,0,0,1-.994-4.279,8.787,8.787,0,0,1,.994-4.237m11.325,1.441a4.749,4.749,0,0,0-1.772-1.844,4.64,4.64,0,0,0-2.363-.634,4.72,4.72,0,0,0-2.363.619,4.671,4.671,0,0,0-1.772,1.815,5.666,5.666,0,0,0-.677,2.839,5.908,5.908,0,0,0,.677,2.881,4.769,4.769,0,0,0,1.786,1.888,4.582,4.582,0,0,0,2.349.648,4.634,4.634,0,0,0,2.363-.634,4.728,4.728,0,0,0,1.772-1.859,5.834,5.834,0,0,0,.677-2.867,5.752,5.752,0,0,0-.677-2.853" transform="translate(-99.034 -2.731)" fill="#101011"/>
  <path id="Path_20" data-name="Path 20" d="M320.966,19.767a7.246,7.246,0,0,1,6.5-3.89,6.929,6.929,0,0,1,3.271.735,6.646,6.646,0,0,1,2.234,1.83V16.136h3.314V32.014h-3.314V29.652a6.532,6.532,0,0,1-2.276,1.873,7.367,7.367,0,0,1-7.031-.3,7.455,7.455,0,0,1-2.695-2.939A9.037,9.037,0,0,1,319.972,24a8.786,8.786,0,0,1,.994-4.237m11.325,1.441a4.749,4.749,0,0,0-1.772-1.844,4.64,4.64,0,0,0-2.363-.634,4.72,4.72,0,0,0-2.363.619,4.67,4.67,0,0,0-1.772,1.815A5.665,5.665,0,0,0,323.343,24a5.908,5.908,0,0,0,.677,2.881,4.769,4.769,0,0,0,1.786,1.888,4.582,4.582,0,0,0,2.349.648,4.634,4.634,0,0,0,2.363-.634,4.728,4.728,0,0,0,1.772-1.859,5.834,5.834,0,0,0,.677-2.867,5.752,5.752,0,0,0-.677-2.853" transform="translate(-109.149 -5.416)" fill="#101011"/>
  <path id="Path_21" data-name="Path 21" d="M362.655,16.655a5.533,5.533,0,0,1,2.319,2.305,7.579,7.579,0,0,1,.836,3.688v9.366h-3.256V23.139a4.608,4.608,0,0,0-1.067-3.271,3.794,3.794,0,0,0-2.91-1.139,3.842,3.842,0,0,0-2.925,1.139,4.571,4.571,0,0,0-1.08,3.271v8.876h-3.285V16.137h3.285v1.815a5.43,5.43,0,0,1,2.06-1.527,6.584,6.584,0,0,1,2.666-.548,7.123,7.123,0,0,1,3.357.778" transform="translate(-119.832 -5.416)" fill="#101011"/>
  <path id="Path_22" data-name="Path 22" d="M393.109,24.061a9,9,0,0,1-.994,4.308,7.173,7.173,0,0,1-2.752,2.882,7.869,7.869,0,0,1-4.034,1.023,7.656,7.656,0,0,1-4.726-1.426A7.1,7.1,0,0,1,378.009,27h3.545a3.646,3.646,0,0,0,3.775,2.508,3.957,3.957,0,0,0,3.213-1.442,6.085,6.085,0,0,0,1.2-4.005,6.03,6.03,0,0,0-1.2-3.991,3.976,3.976,0,0,0-3.213-1.426,4.086,4.086,0,0,0-2.392.663,3.746,3.746,0,0,0-1.383,1.844h-3.545a6.745,6.745,0,0,1,2.55-3.905,8.8,8.8,0,0,1,8.8-.36,7.073,7.073,0,0,1,2.752,2.867,9,9,0,0,1,.994,4.308" transform="translate(-128.947 -5.416)" fill="#e0656b"/>
  <path id="Path_23" data-name="Path 23" d="M419.784,25.3H407.651a4.4,4.4,0,0,0,1.413,3.055,4.455,4.455,0,0,0,3.112,1.153,3.845,3.845,0,0,0,3.746-2.219h3.544a7.151,7.151,0,0,1-2.608,3.588,7.653,7.653,0,0,1-4.683,1.4,8.109,8.109,0,0,1-4.078-1.023,7.278,7.278,0,0,1-2.824-2.882,8.792,8.792,0,0,1-1.023-4.308,8.994,8.994,0,0,1,.994-4.308,6.991,6.991,0,0,1,2.8-2.867,8.321,8.321,0,0,1,4.135-1.009,8.094,8.094,0,0,1,4.006.98,6.93,6.93,0,0,1,2.737,2.752,8.291,8.291,0,0,1,.98,4.078,10.332,10.332,0,0,1-.115,1.614m-3.314-2.651a3.739,3.739,0,0,0-1.3-2.91,4.639,4.639,0,0,0-3.142-1.1,4.217,4.217,0,0,0-2.91,1.081,4.515,4.515,0,0,0-1.441,2.925Z" transform="translate(-137.899 -5.416)" fill="#101011"/>
  <g id="Group_9" data-name="Group 9">
    <path id="Path_24" data-name="Path 24" d="M0,13.649V0H13.649V3.753h-9.9v9.9Z" transform="translate(0 0)" fill="#e0656b"/>
    <path id="Path_25" data-name="Path 25" d="M51.455,37.806V51.454H37.806V47.7h9.9v-9.9Z" transform="translate(-12.896 -12.896)" fill="#e0656b"/>
    <path id="Path_26" data-name="Path 26" d="M51.455,13.649V0H37.806V3.753h9.9v9.9Z" transform="translate(-12.896 0)" fill="#e0656b"/>
    <path id="Path_27" data-name="Path 27" d="M0,37.806V51.454H13.649V47.7h-9.9v-9.9Z" transform="translate(0 -12.896)" fill="#e0656b"/>
    <path id="Path_28" data-name="Path 28" d="M24.056,10.956A10.052,10.052,0,0,1,34.108,21.008c0,5.552-4.428,14.069-10.052,14.069S14,26.56,14,21.008A10.051,10.051,0,0,1,24.056,10.956" transform="translate(-4.777 -3.738)" fill="#4bb58c"/>
  </g>
  <path id="Path_32" data-name="Path 32" d="M80.159,12.609v5.879h6.916v2.68H80.159v6.138h7.781v2.68H76.873V9.928H87.939v2.68Z" transform="translate(-26.223 -3.387)" fill="#101011"/>
</svg>
